<svg viewBox="0 0 100 100" xmlns="http://www.w3.org/2000/svg">
  <!-- EC GROUP — Bloom Mark (6-petal geometric flower) -->
  <g fill="white">
    <path d="M50,50 C46,43 44,34 47.5,20 C48.5,13 51.5,13 52.5,20 C56,34 54,43 50,50Z" transform="rotate(0,50,50)"/>
    <path d="M50,50 C46,43 44,34 47.5,20 C48.5,13 51.5,13 52.5,20 C56,34 54,43 50,50Z" transform="rotate(60,50,50)"/>
    <path d="M50,50 C46,43 44,34 47.5,20 C48.5,13 51.5,13 52.5,20 C56,34 54,43 50,50Z" transform="rotate(120,50,50)"/>
    <path d="M50,50 C46,43 44,34 47.5,20 C48.5,13 51.5,13 52.5,20 C56,34 54,43 50,50Z" transform="rotate(180,50,50)"/>
    <path d="M50,50 C46,43 44,34 47.5,20 C48.5,13 51.5,13 52.5,20 C56,34 54,43 50,50Z" transform="rotate(240,50,50)"/>
    <path d="M50,50 C46,43 44,34 47.5,20 C48.5,13 51.5,13 52.5,20 C56,34 54,43 50,50Z" transform="rotate(300,50,50)"/>
  </g>
</svg>
